<svg width="16" height="17" viewBox="0 0 16 17" fill="none" xmlns="http://www.w3.org/2000/svg">
<path d="M8.30081 5.49334C9.84456 5.49334 11.1508 6.79959 11.1508 8.34334C11.1508 9.91677 9.84456 11.1933 8.30081 11.1933C6.72737 11.1933 5.45081 9.91677 5.45081 8.34334C5.45081 6.79959 6.72737 5.49334 8.30081 5.49334ZM15.6039 7.89802C15.9899 8.07615 15.9899 8.64021 15.6039 8.81834L12.7836 10.2136L13.793 13.2121C13.9117 13.598 13.5258 13.984 13.1399 13.8652L10.1414 12.8558L8.74612 15.6761C8.56799 16.0621 8.00393 16.0621 7.82581 15.6761L6.43049 12.8558L3.43206 13.8652C3.04612 13.984 2.66018 13.598 2.77893 13.2121L3.78831 10.2136L0.967993 8.81834C0.582056 8.64021 0.582056 8.07615 0.967993 7.89802L3.78831 6.50271L2.77893 3.50427C2.66018 3.11834 3.04612 2.7324 3.43206 2.85115L6.43049 3.86052L7.82581 1.04021C8.00393 0.654273 8.56799 0.654273 8.74612 1.04021L10.1414 3.86052L13.1399 2.85115C13.5258 2.7324 13.9117 3.11834 13.793 3.50427L12.7836 6.50271L15.6039 7.89802ZM10.9727 11.0449C12.4571 9.56052 12.4571 7.15584 10.9727 5.67146C9.48831 4.18709 7.08362 4.18709 5.59924 5.67146C4.11487 7.15584 4.11487 9.56052 5.59924 11.0449C7.08362 12.5293 9.48831 12.5293 10.9727 11.0449Z" fill="white"/>
</svg>
